<svg xmlns="http://www.w3.org/2000/svg" width="32" height="32" viewBox="28 2 8 16">
  <defs>
    <linearGradient id="iconGrad" x1="0%" y1="0%" x2="100%" y2="100%">
      <stop offset="0%" style="stop-color:#0EA5E9;stop-opacity:1" />
      <stop offset="100%" style="stop-color:#0369A1;stop-opacity:1" />
    </linearGradient>
  </defs>
  
  <!-- Shopping Cart Body -->
  <path fill="#0EA5E9" d="M 28.5 6 L 29 10.5 C 29.05 11 29.3 11.5 29.8 11.5 L 34.2 11.5 C 34.7 11.5 34.95 11 35 10.5 L 35.5 6 Z"/>
  
  <!-- Cart Handle -->
  <path fill="none" stroke="#0369A1" stroke-width="0.4" stroke-linecap="round" 
        d="M 30.2 6 C 30.2 5 30.8 4.2 32 4.2 C 33.2 4.2 33.8 5 33.8 6"/>
  
  <!-- Checkmark -->
  <path fill="none" stroke="#10B981" stroke-width="0.6" stroke-linecap="round" stroke-linejoin="round"
        d="M 30 9 L 31.3 10.3 L 34 7.5"/>
  
  <!-- Cart Wheels -->
  <circle cx="30.5" cy="12.5" r="0.5" fill="#0369A1"/>
  <circle cx="33.5" cy="12.5" r="0.5" fill="#0369A1"/>
  
  <!-- Speed Lines (للحركة والسرعة) -->
  <path fill="none" stroke="#0EA5E9" stroke-width="0.3" stroke-linecap="round" opacity="0.6"
        d="M 28 7.5 L 27 7.5 M 28.2 9 L 27.2 9 M 28.5 10.5 L 27.5 10.5"/>
</svg>