<svg xmlns="http://www.w3.org/2000/svg" width="24" height="24" viewBox="28 2 8 16">
	<path fill="#fb8500" d="M28.902 2.862h.6q.216.002.431 0h.595c.622-.002 1.191.084 1.702.47l.048.038a2.84 2.84 0 0 1 1.064 1.878q.016.181.022.362l.005.116c.066 1.572 0 3.092-1.762 7.311l-.024.033a8 8 0 0 1-.526.633l-.03.034c-.167.183-.428.38-.681.394a.37.37 0 0 1-.258-.106c-.096-.15-.116-.298-.116-.475q-.002-.021-.001-.045l-.002-.152v-.108l-.003-.294-.002-.181q-.008-.68-.008-1.36v-.056l.003-.544v-.289q.002-.062.002-.125v-.07a1 1 0 0 0-.059-.27c-.145-.07-.31-.063-.466-.061l-.075.002q-.1 0-.198.002c-.862.011-.862.011-1.162-.076l-.044-.013a2.68 2.68 0 0 1-1.614-1.29 3.2 3.2 0 0 1-.24-.577l-.012-.04c-.089-.303-.105-.625-.124-.938l-.003-.058c-.07-1.144-.048-2.38.738-3.288.3-.339.658-.587 1.084-.736l.042-.016c.35-.114.713-.105 1.075-.105"/>
	<path fill="#fefefd" d="m30.041 4.395.054.008q.025.004.052.006l.046.008c.038.009.038.009.075.045l-.047.006c-.397.058-.586.211-.828.523l-.053.067-.05.066a1.9 1.9 0 0 1-.477.433c-.05.03-.05.03-.067.072-.016.095.002.144.055.223.097.13.19.202.348.239.341.033.58-.1.836-.308.126-.101.256-.092.411-.081a.5.5 0 0 1 .164.075l.048.027c.189.114.346.264.484.436l.024.028q.221.272.416.564l.028.041.08.12.023.034c.038.06.053.097.053.166a1.2 1.2 0 0 1-.088.213l-.02.039a2 2 0 0 1-.15.258h-.036c-.022-.024-.022-.024-.045-.06l-.028-.039-.03-.044a13 13 0 0 0-.788-1.011l-.056-.067-.03-.036-.026-.033c-.041-.042-.062-.044-.124-.05-.064 0-.064 0-.102.036-.026.061-.02.092 0 .156.033.039.033.039.061.064.116.108.216.236.314.36l.1.123q.216.264.412.544l.078.103.041.053.036.044c.02.042.02.042.019.089a.2.2 0 0 1-.08.108l-.04.032-.042.034-.044.038-.042.038-.039.033c-.041.022-.041.022-.084.022-.066-.025-.112-.067-.164-.114l-.028-.025-.061-.055-.105-.09q-.113-.101-.223-.205a3 3 0 0 1-.242-.253l-.141-.155a3 3 0 0 1-.212-.256c-.028-.038-.028-.038-.082-.069-.075-.006-.102-.006-.166.038-.009.061-.012.106.019.161q.04.051.084.097l.03.034.061.067q.049.052.095.108l.059.068.036.041c.172.197.355.388.56.552.08.064.154.134.23.205-.131.089-.345.172-.508.159-.094-.025-.166-.083-.244-.14l-.069-.05a3 3 0 0 1-.698-.72c-.019-.027-.019-.027-.039-.046-.073-.004-.102-.004-.166.038-.009.088-.009.13.033.206l.046.056q.013.015.025.032l.081.095.027.031c.161.186.334.362.536.505l.023.019v.018a1.4 1.4 0 0 1-.384-.036l-.063-.014c-.38-.092-.684-.29-.964-.561l-.034-.03c-.334-.314-.55-.827-.574-1.281a2.5 2.5 0 0 1 .039-.633l.014-.066c.086-.372.276-.68.536-.953l.034-.038c.442-.478 1.125-.675 1.755-.586"/>
</svg>