<?xml version="1.0" encoding="UTF-8"?>
<svg xmlns="http://www.w3.org/2000/svg" xmlns:xlink="http://www.w3.org/1999/xlink" width="89px" height="50px" viewBox="0 0 88 50" version="1.1">
<g id="surface1">
<path style=" stroke:none;fill-rule:nonzero;fill:rgb(98.431373%,52.156866%,0%);fill-opacity:1;" d="M 20.390625 17.539062 C 20.4375 17.539062 20.480469 17.535156 20.527344 17.535156 C 20.578125 17.535156 20.628906 17.535156 20.679688 17.535156 C 20.730469 17.535156 20.78125 17.535156 20.832031 17.535156 C 20.941406 17.535156 21.046875 17.53125 21.15625 17.53125 C 21.320312 17.53125 21.484375 17.53125 21.648438 17.527344 C 21.753906 17.527344 21.855469 17.527344 21.960938 17.527344 C 22.035156 17.523438 22.035156 17.523438 22.109375 17.523438 C 22.464844 17.523438 22.722656 17.582031 22.980469 17.839844 C 23.125 18.078125 23.160156 18.257812 23.109375 18.53125 C 23.097656 18.585938 23.085938 18.644531 23.074219 18.703125 C 23.0625 18.765625 23.050781 18.832031 23.039062 18.894531 C 23.027344 18.960938 23.011719 19.027344 23 19.09375 C 22.964844 19.277344 22.929688 19.457031 22.894531 19.640625 C 22.859375 19.835938 22.820312 20.027344 22.785156 20.222656 C 22.714844 20.59375 22.644531 20.960938 22.570312 21.332031 C 22.492188 21.742188 22.414062 22.152344 22.335938 22.5625 C 22.234375 23.082031 22.136719 23.601562 22.035156 24.121094 C 21.890625 24.878906 21.746094 25.636719 21.605469 26.390625 C 21.597656 26.425781 21.589844 26.460938 21.585938 26.496094 C 21.523438 26.824219 21.460938 27.152344 21.398438 27.480469 C 21.375 27.621094 21.347656 27.765625 21.320312 27.90625 C 21.304688 27.984375 21.304688 27.984375 21.292969 28.0625 C 21.28125 28.109375 21.273438 28.15625 21.265625 28.203125 C 21.257812 28.242188 21.25 28.28125 21.242188 28.324219 C 21.222656 28.425781 21.222656 28.425781 21.175781 28.566406 C 22.386719 28.566406 23.59375 28.566406 24.839844 28.566406 C 24.855469 28.425781 24.871094 28.289062 24.886719 28.148438 C 24.902344 28.054688 24.914062 27.960938 24.929688 27.871094 C 24.945312 27.792969 24.945312 27.792969 24.957031 27.710938 C 24.972656 27.628906 24.972656 27.628906 24.984375 27.539062 C 24.996094 27.476562 25.007812 27.414062 25.015625 27.351562 C 25.058594 27.097656 25.097656 26.847656 25.140625 26.59375 C 25.1875 26.304688 25.234375 26.015625 25.28125 25.730469 C 25.289062 25.683594 25.296875 25.640625 25.304688 25.59375 C 25.441406 24.769531 25.570312 23.945312 25.695312 23.125 C 25.738281 22.859375 25.777344 22.597656 25.820312 22.335938 C 25.824219 22.296875 25.832031 22.257812 25.835938 22.222656 C 25.863281 22.070312 25.886719 21.917969 25.910156 21.765625 C 25.980469 21.3125 26.050781 20.855469 26.121094 20.398438 C 26.164062 20.109375 26.210938 19.816406 26.257812 19.527344 C 26.285156 19.355469 26.308594 19.183594 26.335938 19.015625 C 26.363281 18.828125 26.394531 18.640625 26.425781 18.453125 C 26.4375 18.367188 26.4375 18.367188 26.449219 18.285156 C 26.496094 17.988281 26.542969 17.800781 26.765625 17.59375 C 26.894531 17.527344 27 17.539062 27.144531 17.539062 C 27.203125 17.539062 27.261719 17.539062 27.324219 17.539062 C 27.390625 17.539062 27.457031 17.535156 27.519531 17.535156 C 27.589844 17.535156 27.65625 17.535156 27.722656 17.535156 C 27.863281 17.535156 28.003906 17.535156 28.144531 17.535156 C 28.324219 17.535156 28.503906 17.535156 28.6875 17.53125 C 28.824219 17.53125 28.964844 17.53125 29.101562 17.53125 C 29.167969 17.53125 29.234375 17.53125 29.300781 17.53125 C 29.394531 17.53125 29.488281 17.53125 29.582031 17.53125 C 29.632812 17.53125 29.6875 17.53125 29.742188 17.527344 C 29.90625 17.550781 29.984375 17.582031 30.113281 17.683594 C 30.269531 17.898438 30.257812 18.0625 30.222656 18.316406 C 30.210938 18.382812 30.210938 18.382812 30.199219 18.449219 C 30.191406 18.496094 30.1875 18.542969 30.179688 18.59375 C 30.15625 18.738281 30.136719 18.882812 30.113281 19.027344 C 30.101562 19.113281 30.085938 19.199219 30.074219 19.28125 C 30.039062 19.535156 30 19.789062 29.957031 20.039062 C 29.945312 20.132812 29.929688 20.222656 29.917969 20.316406 C 29.878906 20.550781 29.84375 20.789062 29.804688 21.027344 C 29.746094 21.410156 29.6875 21.792969 29.628906 22.175781 C 29.605469 22.308594 29.585938 22.441406 29.566406 22.574219 C 29.550781 22.65625 29.539062 22.738281 29.527344 22.816406 C 29.519531 22.875 29.519531 22.875 29.511719 22.929688 C 29.480469 23.109375 29.480469 23.109375 29.472656 23.285156 C 29.539062 23.265625 29.539062 23.265625 29.609375 23.242188 C 29.734375 23.234375 29.859375 23.234375 29.984375 23.234375 C 30.042969 23.234375 30.042969 23.234375 30.101562 23.234375 C 30.230469 23.234375 30.363281 23.234375 30.492188 23.234375 C 30.585938 23.230469 30.679688 23.230469 30.769531 23.230469 C 31.078125 23.230469 31.382812 23.230469 31.691406 23.230469 C 31.796875 23.230469 31.902344 23.230469 32.007812 23.230469 C 32.503906 23.226562 33.003906 23.226562 33.5 23.226562 C 34.070312 23.226562 34.644531 23.226562 35.21875 23.222656 C 35.660156 23.222656 36.105469 23.222656 36.546875 23.222656 C 36.8125 23.222656 37.074219 23.222656 37.339844 23.21875 C 37.589844 23.21875 37.839844 23.21875 38.085938 23.21875 C 38.179688 23.21875 38.269531 23.21875 38.359375 23.21875 C 39.246094 23.210938 40.121094 23.332031 40.796875 23.976562 C 41.113281 24.332031 41.355469 24.71875 41.480469 25.183594 C 41.488281 25.222656 41.5 25.261719 41.511719 25.296875 C 41.628906 25.800781 41.574219 26.3125 41.5 26.816406 C 41.492188 26.867188 41.488281 26.917969 41.480469 26.96875 C 41.457031 27.128906 41.433594 27.285156 41.410156 27.445312 C 41.394531 27.554688 41.378906 27.664062 41.363281 27.769531 C 41.328125 28.035156 41.289062 28.300781 41.25 28.566406 C 41.714844 28.5625 42.175781 28.5625 42.640625 28.558594 C 42.855469 28.558594 43.070312 28.554688 43.289062 28.554688 C 43.496094 28.554688 43.703125 28.554688 43.910156 28.550781 C 43.988281 28.550781 44.070312 28.550781 44.148438 28.550781 C 44.257812 28.550781 44.371094 28.550781 44.480469 28.550781 C 44.515625 28.550781 44.546875 28.550781 44.582031 28.550781 C 44.683594 28.550781 44.683594 28.550781 44.824219 28.519531 C 44.988281 28.34375 45.007812 28.101562 45.046875 27.871094 C 45.054688 27.828125 45.0625 27.789062 45.070312 27.746094 C 45.085938 27.65625 45.101562 27.566406 45.117188 27.476562 C 45.140625 27.335938 45.164062 27.191406 45.191406 27.050781 C 45.253906 26.695312 45.316406 26.34375 45.375 25.988281 C 45.429688 25.691406 45.480469 25.390625 45.53125 25.09375 C 45.558594 24.953125 45.582031 24.8125 45.605469 24.675781 C 45.621094 24.585938 45.636719 24.5 45.652344 24.414062 C 45.65625 24.375 45.664062 24.339844 45.671875 24.296875 C 45.726562 23.992188 45.820312 23.695312 46.054688 23.476562 C 46.355469 23.273438 46.648438 23.273438 47.003906 23.273438 C 47.046875 23.273438 47.09375 23.273438 47.140625 23.273438 C 47.234375 23.273438 47.332031 23.273438 47.429688 23.273438 C 47.574219 23.277344 47.722656 23.273438 47.867188 23.273438 C 47.960938 23.273438 48.054688 23.273438 48.148438 23.273438 C 48.191406 23.273438 48.234375 23.273438 48.28125 23.273438 C 48.667969 23.277344 48.9375 23.320312 49.226562 23.609375 C 49.433594 23.890625 49.390625 24.261719 49.351562 24.59375 C 49.308594 24.875 49.253906 25.152344 49.203125 25.429688 C 49.1875 25.519531 49.167969 25.609375 49.152344 25.699219 C 49.109375 25.933594 49.066406 26.164062 49.023438 26.398438 C 48.976562 26.636719 48.933594 26.878906 48.890625 27.117188 C 48.804688 27.582031 48.714844 28.050781 48.628906 28.519531 C 49.128906 28.523438 49.628906 28.523438 50.128906 28.527344 C 50.359375 28.527344 50.59375 28.527344 50.824219 28.527344 C 51.046875 28.53125 51.269531 28.53125 51.496094 28.53125 C 51.582031 28.53125 51.667969 28.53125 51.75 28.535156 C 51.871094 28.535156 51.992188 28.535156 52.109375 28.535156 C 52.144531 28.535156 52.179688 28.535156 52.21875 28.535156 C 52.402344 28.535156 52.402344 28.535156 52.566406 28.460938 C 52.628906 28.359375 52.644531 28.28125 52.660156 28.164062 C 52.667969 28.121094 52.675781 28.078125 52.679688 28.03125 C 52.6875 27.984375 52.695312 27.9375 52.699219 27.886719 C 52.710938 27.8125 52.710938 27.8125 52.722656 27.734375 C 52.746094 27.570312 52.769531 27.40625 52.792969 27.242188 C 52.808594 27.128906 52.824219 27.015625 52.839844 26.902344 C 52.910156 26.414062 52.976562 25.921875 53.042969 25.433594 C 53.070312 25.253906 53.09375 25.074219 53.117188 24.894531 C 53.136719 24.773438 53.152344 24.652344 53.167969 24.527344 C 53.175781 24.453125 53.1875 24.378906 53.199219 24.304688 C 53.203125 24.269531 53.207031 24.238281 53.210938 24.203125 C 53.257812 23.863281 53.359375 23.605469 53.625 23.378906 C 53.882812 23.210938 54.121094 23.21875 54.414062 23.222656 C 54.464844 23.222656 54.515625 23.222656 54.566406 23.222656 C 54.671875 23.222656 54.773438 23.222656 54.878906 23.222656 C 55.039062 23.222656 55.199219 23.222656 55.359375 23.222656 C 55.460938 23.222656 55.5625 23.222656 55.664062 23.222656 C 55.710938 23.222656 55.757812 23.222656 55.808594 23.222656 C 56.121094 23.222656 56.40625 23.246094 56.652344 23.460938 C 56.683594 23.503906 56.683594 23.503906 56.714844 23.542969 C 56.75 23.585938 56.75 23.585938 56.78125 23.628906 C 57.074219 24.054688 56.832031 24.921875 56.761719 25.402344 C 56.75 25.488281 56.734375 25.574219 56.722656 25.660156 C 56.691406 25.882812 56.660156 26.105469 56.625 26.332031 C 56.601562 26.511719 56.574219 26.695312 56.546875 26.878906 C 56.515625 27.097656 56.484375 27.316406 56.453125 27.535156 C 56.449219 27.578125 56.441406 27.617188 56.4375 27.660156 C 56.417969 27.777344 56.402344 27.894531 56.386719 28.011719 C 56.378906 28.046875 56.375 28.082031 56.371094 28.117188 C 56.347656 28.269531 56.324219 28.417969 56.285156 28.566406 C 56.574219 28.5625 56.867188 28.558594 57.15625 28.550781 C 57.257812 28.550781 57.355469 28.550781 57.453125 28.546875 C 57.597656 28.546875 57.738281 28.542969 57.882812 28.542969 C 57.925781 28.542969 57.96875 28.542969 58.015625 28.542969 C 58.058594 28.539062 58.097656 28.539062 58.140625 28.539062 C 58.175781 28.539062 58.214844 28.539062 58.25 28.535156 C 58.371094 28.511719 58.40625 28.472656 58.484375 28.378906 C 58.511719 28.292969 58.511719 28.292969 58.523438 28.195312 C 58.53125 28.140625 58.53125 28.140625 58.539062 28.082031 C 58.542969 28.039062 58.550781 28 58.554688 27.957031 C 58.5625 27.914062 58.566406 27.871094 58.574219 27.828125 C 58.585938 27.734375 58.597656 27.636719 58.609375 27.542969 C 58.628906 27.394531 58.652344 27.246094 58.671875 27.097656 C 58.722656 26.726562 58.773438 26.359375 58.824219 25.988281 C 58.863281 25.675781 58.90625 25.363281 58.949219 25.050781 C 58.972656 24.90625 58.992188 24.757812 59.011719 24.613281 C 59.023438 24.523438 59.035156 24.429688 59.046875 24.339844 C 59.050781 24.300781 59.058594 24.261719 59.0625 24.21875 C 59.109375 23.90625 59.191406 23.632812 59.421875 23.410156 C 59.609375 23.285156 59.769531 23.230469 59.996094 23.226562 C 60.042969 23.226562 60.085938 23.226562 60.132812 23.226562 C 60.179688 23.226562 60.226562 23.226562 60.277344 23.226562 C 60.328125 23.226562 60.375 23.226562 60.429688 23.226562 C 60.53125 23.226562 60.636719 23.226562 60.742188 23.226562 C 60.902344 23.226562 61.0625 23.226562 61.222656 23.222656 C 61.324219 23.222656 61.425781 23.222656 61.527344 23.222656 C 61.601562 23.222656 61.601562 23.222656 61.671875 23.222656 C 61.964844 23.222656 62.265625 23.234375 62.496094 23.445312 C 62.773438 23.765625 62.769531 24.03125 62.746094 24.445312 C 62.714844 24.746094 62.671875 25.046875 62.628906 25.347656 C 62.613281 25.429688 62.601562 25.515625 62.589844 25.601562 C 62.558594 25.828125 62.527344 26.050781 62.492188 26.273438 C 62.46875 26.457031 62.441406 26.640625 62.414062 26.824219 C 62.359375 27.203125 62.304688 27.582031 62.25 27.960938 C 62.246094 27.996094 62.242188 28.027344 62.238281 28.0625 C 62.210938 28.230469 62.183594 28.398438 62.148438 28.566406 C 62.453125 28.5625 62.757812 28.558594 63.0625 28.554688 C 63.167969 28.554688 63.269531 28.554688 63.375 28.550781 C 63.523438 28.550781 63.671875 28.550781 63.820312 28.546875 C 63.867188 28.546875 63.914062 28.546875 63.960938 28.546875 C 64.003906 28.546875 64.046875 28.542969 64.089844 28.542969 C 64.128906 28.542969 64.167969 28.542969 64.207031 28.542969 C 64.308594 28.527344 64.308594 28.527344 64.382812 28.449219 C 64.472656 28.277344 64.488281 28.101562 64.511719 27.90625 C 64.519531 27.863281 64.523438 27.820312 64.53125 27.773438 C 64.542969 27.679688 64.554688 27.585938 64.566406 27.492188 C 64.585938 27.34375 64.609375 27.195312 64.628906 27.046875 C 64.6875 26.625 64.742188 26.203125 64.800781 25.777344 C 64.832031 25.519531 64.871094 25.261719 64.90625 25.003906 C 64.917969 24.90625 64.933594 24.804688 64.945312 24.707031 C 64.960938 24.570312 64.980469 24.433594 65 24.292969 C 65.003906 24.253906 65.011719 24.214844 65.015625 24.171875 C 65.066406 23.835938 65.183594 23.582031 65.445312 23.359375 C 65.613281 23.273438 65.71875 23.238281 65.910156 23.242188 C 66.03125 23.328125 66.117188 23.4375 66.210938 23.554688 C 66.507812 23.898438 66.820312 24.179688 67.191406 24.445312 C 67.21875 24.464844 67.246094 24.484375 67.277344 24.503906 C 67.6875 24.800781 68.121094 25.042969 68.566406 25.277344 C 68.480469 25.917969 68.394531 26.554688 68.304688 27.195312 C 68.273438 27.449219 68.238281 27.703125 68.203125 27.960938 C 68.039062 29.21875 67.671875 30.25 66.640625 31.066406 C 65.8125 31.660156 65.007812 31.820312 64.011719 31.820312 C 63.925781 31.820312 63.839844 31.820312 63.753906 31.820312 C 63.574219 31.824219 63.394531 31.824219 63.214844 31.824219 C 62.984375 31.824219 62.757812 31.824219 62.527344 31.824219 C 62.347656 31.828125 62.171875 31.828125 61.996094 31.828125 C 61.910156 31.828125 61.824219 31.828125 61.742188 31.828125 C 61.621094 31.828125 61.503906 31.828125 61.386719 31.828125 C 61.351562 31.828125 61.316406 31.828125 61.28125 31.828125 C 61.042969 31.828125 60.914062 31.769531 60.730469 31.621094 C 60.589844 31.476562 60.574219 31.351562 60.546875 31.15625 C 60.507812 31.179688 60.46875 31.207031 60.429688 31.230469 C 59.839844 31.589844 59.253906 31.8125 58.558594 31.8125 C 58.519531 31.8125 58.480469 31.8125 58.441406 31.816406 C 58.320312 31.816406 58.195312 31.816406 58.074219 31.816406 C 58.03125 31.816406 57.988281 31.816406 57.945312 31.816406 C 57.71875 31.816406 57.496094 31.820312 57.273438 31.820312 C 57.039062 31.820312 56.808594 31.820312 56.578125 31.824219 C 56.398438 31.824219 56.222656 31.824219 56.042969 31.824219 C 55.957031 31.824219 55.875 31.824219 55.789062 31.828125 C 55.667969 31.828125 55.550781 31.828125 55.429688 31.828125 C 55.378906 31.828125 55.378906 31.828125 55.324219 31.828125 C 55.085938 31.828125 54.953125 31.773438 54.769531 31.621094 C 54.652344 31.460938 54.632812 31.40625 54.632812 31.203125 C 54.589844 31.226562 54.546875 31.253906 54.503906 31.277344 C 53.871094 31.636719 53.285156 31.8125 52.554688 31.8125 C 52.476562 31.8125 52.476562 31.8125 52.398438 31.816406 C 52.226562 31.816406 52.054688 31.816406 51.886719 31.816406 C 51.828125 31.816406 51.769531 31.816406 51.707031 31.816406 C 51.429688 31.816406 51.152344 31.820312 50.875 31.820312 C 50.554688 31.820312 50.234375 31.820312 49.914062 31.824219 C 49.636719 31.824219 49.359375 31.824219 49.082031 31.824219 C 48.960938 31.824219 48.84375 31.824219 48.726562 31.828125 C 48.5625 31.828125 48.398438 31.828125 48.230469 31.828125 C 48.160156 31.828125 48.160156 31.828125 48.082031 31.828125 C 47.808594 31.828125 47.648438 31.804688 47.4375 31.621094 C 47.277344 31.425781 47.269531 31.214844 47.253906 30.972656 C 47.230469 30.992188 47.203125 31.011719 47.175781 31.03125 C 46.421875 31.589844 45.660156 31.835938 44.734375 31.828125 C 44.667969 31.828125 44.601562 31.828125 44.535156 31.828125 C 44.355469 31.832031 44.171875 31.828125 43.992188 31.828125 C 43.796875 31.828125 43.601562 31.828125 43.402344 31.828125 C 43.058594 31.832031 42.714844 31.828125 42.371094 31.828125 C 41.859375 31.828125 41.347656 31.828125 40.835938 31.828125 C 39.917969 31.832031 39.003906 31.828125 38.089844 31.828125 C 37.289062 31.828125 36.492188 31.828125 35.691406 31.828125 C 35.609375 31.828125 35.609375 31.828125 35.53125 31.828125 C 35.3125 31.828125 35.097656 31.828125 34.882812 31.828125 C 32.859375 31.828125 30.839844 31.828125 28.816406 31.828125 C 27.023438 31.824219 25.226562 31.824219 23.429688 31.828125 C 22.96875 31.828125 22.511719 31.828125 22.050781 31.828125 C 21.992188 31.828125 21.9375 31.828125 21.878906 31.828125 C 20.378906 31.828125 18.878906 31.828125 17.375 31.824219 C 17.214844 31.824219 17.054688 31.824219 16.890625 31.824219 C 16.785156 31.824219 16.675781 31.824219 16.570312 31.824219 C 15.769531 31.824219 14.972656 31.824219 14.171875 31.824219 C 13.261719 31.824219 12.351562 31.824219 11.441406 31.824219 C 10.933594 31.824219 10.425781 31.824219 9.917969 31.824219 C 9.578125 31.824219 9.238281 31.824219 8.898438 31.824219 C 8.703125 31.824219 8.507812 31.824219 8.316406 31.824219 C 8.140625 31.824219 7.964844 31.824219 7.785156 31.824219 C 7.695312 31.824219 7.601562 31.824219 7.507812 31.824219 C 6.652344 31.820312 5.925781 31.597656 5.292969 31.003906 C 4.730469 30.410156 4.550781 29.707031 4.566406 28.902344 C 4.589844 28.320312 4.714844 27.746094 4.820312 27.175781 C 4.851562 26.988281 4.886719 26.804688 4.917969 26.621094 C 4.972656 26.3125 5.027344 26.003906 5.085938 25.695312 C 5.148438 25.335938 5.214844 24.980469 5.277344 24.625 C 5.34375 24.242188 5.414062 23.863281 5.480469 23.480469 C 5.5 23.371094 5.519531 23.261719 5.539062 23.152344 C 5.570312 22.980469 5.601562 22.808594 5.632812 22.636719 C 5.648438 22.546875 5.664062 22.453125 5.683594 22.359375 C 5.828125 21.5625 5.828125 21.5625 6.097656 21.34375 C 6.128906 21.320312 6.164062 21.292969 6.195312 21.265625 C 6.347656 21.152344 6.445312 21.152344 6.632812 21.148438 C 6.6875 21.148438 6.742188 21.148438 6.800781 21.144531 C 7.050781 21.144531 7.304688 21.140625 7.558594 21.140625 C 7.691406 21.140625 7.824219 21.140625 7.957031 21.136719 C 8.117188 21.136719 8.277344 21.132812 8.4375 21.132812 C 8.53125 21.132812 8.621094 21.132812 8.710938 21.128906 C 9.171875 21.132812 9.171875 21.132812 9.339844 21.269531 C 9.546875 21.515625 9.5 21.773438 9.488281 22.082031 C 9.464844 22.289062 9.429688 22.492188 9.390625 22.695312 C 9.375 22.78125 9.359375 22.871094 9.34375 22.960938 C 9.324219 23.054688 9.308594 23.148438 9.289062 23.242188 C 9.253906 23.4375 9.21875 23.636719 9.183594 23.832031 C 9.101562 24.285156 9.019531 24.738281 8.9375 25.191406 C 8.863281 25.605469 8.789062 26.023438 8.710938 26.4375 C 8.675781 26.632812 8.640625 26.828125 8.605469 27.023438 C 8.589844 27.117188 8.574219 27.207031 8.554688 27.300781 C 8.535156 27.414062 8.515625 27.523438 8.496094 27.636719 C 8.445312 27.914062 8.417969 28.148438 8.480469 28.425781 C 8.59375 28.542969 8.664062 28.53125 8.820312 28.53125 C 8.855469 28.53125 8.890625 28.53125 8.925781 28.53125 C 8.960938 28.53125 9 28.53125 9.035156 28.53125 C 9.160156 28.53125 9.285156 28.53125 9.410156 28.535156 C 9.5 28.535156 9.589844 28.535156 9.675781 28.535156 C 9.917969 28.535156 10.160156 28.535156 10.402344 28.539062 C 10.65625 28.539062 10.910156 28.539062 11.160156 28.539062 C 11.640625 28.542969 12.121094 28.542969 12.597656 28.546875 C 13.144531 28.546875 13.6875 28.550781 14.234375 28.550781 C 15.355469 28.558594 16.476562 28.5625 17.601562 28.566406 C 17.605469 28.503906 17.609375 28.445312 17.613281 28.382812 C 17.648438 28.027344 17.722656 27.679688 17.789062 27.328125 C 17.804688 27.253906 17.820312 27.175781 17.832031 27.097656 C 17.867188 26.929688 17.898438 26.765625 17.929688 26.597656 C 17.980469 26.335938 18.03125 26.070312 18.082031 25.804688 C 18.171875 25.335938 18.261719 24.867188 18.351562 24.398438 C 18.488281 23.699219 18.621094 22.996094 18.757812 22.296875 C 18.808594 22.035156 18.855469 21.773438 18.90625 21.511719 C 18.9375 21.347656 18.96875 21.183594 19.003906 21.019531 C 19.019531 20.941406 19.03125 20.859375 19.046875 20.78125 C 19.132812 20.335938 19.214844 19.890625 19.289062 19.445312 C 19.304688 19.359375 19.320312 19.277344 19.332031 19.195312 C 19.359375 19.039062 19.386719 18.878906 19.410156 18.722656 C 19.480469 18.296875 19.542969 17.945312 19.898438 17.664062 C 20.070312 17.570312 20.195312 17.539062 20.390625 17.539062 Z M 28.921875 26.714844 C 28.816406 26.871094 28.800781 26.976562 28.769531 27.164062 C 28.761719 27.207031 28.761719 27.207031 28.753906 27.253906 C 28.742188 27.316406 28.730469 27.382812 28.722656 27.445312 C 28.707031 27.542969 28.691406 27.640625 28.671875 27.738281 C 28.664062 27.800781 28.652344 27.863281 28.640625 27.921875 C 28.632812 27.980469 28.625 28.035156 28.613281 28.09375 C 28.601562 28.226562 28.601562 28.304688 28.644531 28.425781 C 28.722656 28.503906 28.820312 28.476562 28.925781 28.476562 C 28.960938 28.476562 28.992188 28.476562 29.027344 28.476562 C 29.0625 28.476562 29.097656 28.476562 29.136719 28.476562 C 29.257812 28.476562 29.375 28.476562 29.496094 28.476562 C 29.582031 28.476562 29.667969 28.476562 29.753906 28.476562 C 29.988281 28.476562 30.222656 28.476562 30.453125 28.476562 C 30.699219 28.476562 30.941406 28.476562 31.1875 28.476562 C 31.648438 28.476562 32.109375 28.476562 32.574219 28.476562 C 33.101562 28.476562 33.625 28.476562 34.152344 28.472656 C 35.234375 28.472656 36.316406 28.472656 37.398438 28.472656 C 37.414062 28.390625 37.429688 28.3125 37.445312 28.230469 C 37.453125 28.183594 37.460938 28.140625 37.46875 28.09375 C 37.601562 27.425781 37.601562 27.425781 37.582031 26.757812 C 37.511719 26.671875 37.457031 26.625 37.355469 26.574219 C 37.246094 26.570312 37.140625 26.566406 37.035156 26.566406 C 37 26.566406 36.964844 26.566406 36.933594 26.566406 C 36.820312 26.566406 36.707031 26.566406 36.59375 26.566406 C 36.515625 26.566406 36.433594 26.566406 36.351562 26.566406 C 36.132812 26.566406 35.914062 26.566406 35.695312 26.566406 C 35.558594 26.566406 35.421875 26.566406 35.285156 26.5625 C 34.859375 26.5625 34.429688 26.5625 34.003906 26.5625 C 33.507812 26.5625 33.015625 26.5625 32.519531 26.5625 C 32.136719 26.558594 31.757812 26.558594 31.375 26.558594 C 31.148438 26.558594 30.917969 26.558594 30.691406 26.558594 C 30.476562 26.558594 30.261719 26.558594 30.046875 26.558594 C 29.96875 26.558594 29.890625 26.558594 29.8125 26.558594 C 29.703125 26.554688 29.597656 26.554688 29.488281 26.558594 C 29.398438 26.558594 29.398438 26.558594 29.304688 26.558594 C 29.136719 26.574219 29.054688 26.609375 28.921875 26.714844 Z M 28.921875 26.714844 "/>
<path style=" stroke:none;fill-rule:nonzero;fill:rgb(98.431373%,52.156866%,0%);fill-opacity:1;" d="M 72.253906 7.15625 C 72.441406 7.15625 72.628906 7.15625 72.8125 7.15625 C 73.128906 7.15625 73.441406 7.15625 73.753906 7.15625 C 74.113281 7.160156 74.472656 7.160156 74.832031 7.15625 C 75.144531 7.15625 75.457031 7.15625 75.765625 7.15625 C 75.953125 7.15625 76.136719 7.15625 76.320312 7.15625 C 77.875 7.152344 79.296875 7.367188 80.574219 8.332031 C 80.613281 8.363281 80.65625 8.394531 80.695312 8.425781 C 82.148438 9.574219 83.128906 11.261719 83.355469 13.121094 C 83.382812 13.421875 83.398438 13.726562 83.410156 14.027344 C 83.414062 14.125 83.417969 14.21875 83.421875 14.316406 C 83.585938 18.246094 83.421875 22.046875 79.015625 32.59375 C 78.996094 32.621094 78.976562 32.648438 78.957031 32.675781 C 78.546875 33.226562 78.105469 33.753906 77.640625 34.257812 C 77.617188 34.285156 77.59375 34.316406 77.566406 34.34375 C 77.148438 34.800781 76.496094 35.292969 75.863281 35.328125 C 75.601562 35.316406 75.410156 35.242188 75.21875 35.0625 C 74.980469 34.6875 74.929688 34.316406 74.929688 33.875 C 74.925781 33.839844 74.925781 33.800781 74.925781 33.761719 C 74.925781 33.636719 74.925781 33.507812 74.921875 33.382812 C 74.921875 33.292969 74.921875 33.203125 74.921875 33.113281 C 74.917969 32.867188 74.914062 32.625 74.914062 32.378906 C 74.910156 32.226562 74.910156 32.074219 74.910156 31.925781 C 74.898438 30.792969 74.890625 29.660156 74.890625 28.527344 C 74.890625 28.480469 74.890625 28.433594 74.890625 28.386719 C 74.894531 27.933594 74.894531 27.480469 74.898438 27.027344 C 74.898438 26.863281 74.898438 26.699219 74.898438 26.53125 C 74.898438 26.457031 74.898438 26.378906 74.898438 26.304688 C 74.902344 26.199219 74.902344 26.097656 74.902344 25.992188 C 74.902344 25.90625 74.902344 25.90625 74.902344 25.816406 C 74.886719 25.578125 74.828125 25.367188 74.753906 25.140625 C 74.390625 24.964844 73.980469 24.984375 73.589844 24.988281 C 73.527344 24.988281 73.464844 24.992188 73.402344 24.992188 C 73.234375 24.992188 73.070312 24.992188 72.90625 24.996094 C 70.75 25.023438 70.75 25.023438 70 24.804688 C 69.964844 24.792969 69.925781 24.785156 69.890625 24.773438 C 68.15625 24.273438 66.734375 23.128906 65.855469 21.546875 C 65.605469 21.082031 65.410156 20.605469 65.253906 20.105469 C 65.246094 20.070312 65.234375 20.039062 65.222656 20.003906 C 65 19.246094 64.960938 18.441406 64.914062 17.660156 C 64.910156 17.613281 64.910156 17.566406 64.90625 17.515625 C 64.730469 14.65625 64.785156 11.566406 66.75 9.296875 C 67.5 8.449219 68.394531 7.828125 69.460938 7.457031 C 69.496094 7.445312 69.53125 7.429688 69.566406 7.417969 C 70.441406 7.132812 71.347656 7.15625 72.253906 7.15625 Z M 72.253906 7.15625 "/>
<path style=" stroke:none;fill-rule:nonzero;fill:rgb(99.607843%,99.607843%,99.215686%);fill-opacity:1;" d="M 75.101562 10.988281 C 75.144531 10.996094 75.191406 11 75.238281 11.007812 C 75.28125 11.011719 75.324219 11.019531 75.367188 11.023438 C 75.40625 11.03125 75.445312 11.035156 75.484375 11.042969 C 75.578125 11.066406 75.578125 11.066406 75.671875 11.15625 C 75.613281 11.164062 75.613281 11.164062 75.554688 11.171875 C 74.5625 11.316406 74.089844 11.699219 73.484375 12.480469 C 73.441406 12.535156 73.394531 12.59375 73.351562 12.648438 C 73.308594 12.703125 73.269531 12.757812 73.226562 12.8125 C 72.878906 13.257812 72.507812 13.585938 72.035156 13.894531 C 71.910156 13.96875 71.910156 13.96875 71.867188 14.074219 C 71.828125 14.3125 71.871094 14.433594 72.003906 14.632812 C 72.246094 14.957031 72.480469 15.136719 72.875 15.230469 C 73.726562 15.3125 74.324219 14.980469 74.964844 14.460938 C 75.28125 14.207031 75.605469 14.230469 75.992188 14.257812 C 76.144531 14.296875 76.269531 14.359375 76.402344 14.445312 C 76.464844 14.476562 76.464844 14.476562 76.523438 14.511719 C 76.996094 14.796875 77.386719 15.171875 77.734375 15.601562 C 77.753906 15.625 77.773438 15.648438 77.792969 15.671875 C 78.164062 16.125 78.507812 16.597656 78.832031 17.082031 C 78.855469 17.117188 78.878906 17.152344 78.902344 17.183594 C 78.96875 17.285156 79.035156 17.382812 79.101562 17.484375 C 79.121094 17.511719 79.140625 17.542969 79.160156 17.570312 C 79.253906 17.71875 79.292969 17.8125 79.292969 17.984375 C 79.238281 18.175781 79.164062 18.339844 79.074219 18.515625 C 79.050781 18.5625 79.050781 18.5625 79.023438 18.613281 C 78.910156 18.835938 78.792969 19.054688 78.648438 19.257812 C 78.621094 19.257812 78.589844 19.257812 78.558594 19.257812 C 78.503906 19.199219 78.503906 19.199219 78.445312 19.109375 C 78.421875 19.078125 78.398438 19.046875 78.375 19.011719 C 78.351562 18.976562 78.324219 18.941406 78.300781 18.902344 C 77.683594 18.027344 77.03125 17.1875 76.332031 16.375 C 76.285156 16.320312 76.238281 16.261719 76.191406 16.207031 C 76.167969 16.175781 76.144531 16.148438 76.117188 16.117188 C 76.097656 16.089844 76.074219 16.0625 76.050781 16.035156 C 75.949219 15.929688 75.894531 15.925781 75.742188 15.910156 C 75.582031 15.910156 75.582031 15.910156 75.488281 16 C 75.421875 16.152344 75.4375 16.230469 75.488281 16.390625 C 75.570312 16.488281 75.570312 16.488281 75.640625 16.550781 C 75.929688 16.820312 76.179688 17.140625 76.425781 17.449219 C 76.511719 17.554688 76.59375 17.65625 76.675781 17.757812 C 77.039062 18.199219 77.375 18.652344 77.707031 19.117188 C 77.773438 19.203125 77.835938 19.289062 77.902344 19.375 C 77.9375 19.417969 77.96875 19.460938 78.003906 19.507812 C 78.035156 19.542969 78.0625 19.582031 78.09375 19.617188 C 78.144531 19.722656 78.144531 19.722656 78.140625 19.839844 C 78.09375 19.972656 78.046875 20.023438 77.941406 20.109375 C 77.90625 20.136719 77.875 20.164062 77.839844 20.191406 C 77.789062 20.234375 77.789062 20.234375 77.734375 20.277344 C 77.699219 20.308594 77.660156 20.339844 77.625 20.371094 C 77.589844 20.402344 77.554688 20.433594 77.519531 20.464844 C 77.484375 20.492188 77.453125 20.519531 77.421875 20.546875 C 77.320312 20.601562 77.320312 20.601562 77.210938 20.601562 C 77.046875 20.539062 76.929688 20.433594 76.800781 20.316406 C 76.765625 20.285156 76.765625 20.285156 76.730469 20.253906 C 76.679688 20.207031 76.628906 20.164062 76.578125 20.117188 C 76.492188 20.042969 76.402344 19.964844 76.316406 19.890625 C 76.128906 19.722656 75.941406 19.550781 75.757812 19.378906 C 75.730469 19.347656 75.699219 19.320312 75.667969 19.292969 C 75.484375 19.117188 75.3125 18.9375 75.152344 18.746094 C 75.039062 18.613281 74.917969 18.488281 74.800781 18.359375 C 74.609375 18.152344 74.433594 17.945312 74.269531 17.71875 C 74.199219 17.625 74.199219 17.625 74.066406 17.546875 C 73.878906 17.53125 73.8125 17.53125 73.652344 17.640625 C 73.628906 17.792969 73.621094 17.90625 73.699219 18.042969 C 73.765625 18.128906 73.835938 18.207031 73.910156 18.285156 C 73.933594 18.3125 73.960938 18.339844 73.984375 18.371094 C 74.035156 18.425781 74.085938 18.480469 74.136719 18.539062 C 74.21875 18.625 74.296875 18.714844 74.375 18.808594 C 74.421875 18.867188 74.472656 18.921875 74.523438 18.980469 C 74.554688 19.015625 74.582031 19.046875 74.613281 19.082031 C 75.042969 19.574219 75.5 20.050781 76.011719 20.460938 C 76.210938 20.621094 76.398438 20.796875 76.585938 20.972656 C 76.257812 21.195312 75.722656 21.402344 75.316406 21.371094 C 75.082031 21.308594 74.902344 21.164062 74.707031 21.019531 C 74.652344 20.976562 74.59375 20.9375 74.535156 20.894531 C 73.835938 20.390625 73.292969 19.796875 72.789062 19.09375 C 72.742188 19.027344 72.742188 19.027344 72.691406 18.980469 C 72.507812 18.96875 72.4375 18.96875 72.277344 19.074219 C 72.253906 19.292969 72.253906 19.398438 72.359375 19.589844 C 72.398438 19.636719 72.433594 19.683594 72.472656 19.730469 C 72.496094 19.757812 72.515625 19.78125 72.535156 19.808594 C 72.601562 19.886719 72.667969 19.96875 72.738281 20.046875 C 72.757812 20.070312 72.78125 20.097656 72.804688 20.125 C 73.207031 20.589844 73.640625 21.03125 74.144531 21.386719 C 74.164062 21.402344 74.183594 21.417969 74.203125 21.433594 C 74.203125 21.449219 74.203125 21.464844 74.203125 21.480469 C 73.871094 21.496094 73.566406 21.460938 73.242188 21.390625 C 73.191406 21.378906 73.136719 21.367188 73.085938 21.355469 C 72.136719 21.125 71.375 20.628906 70.675781 19.953125 C 70.648438 19.929688 70.621094 19.902344 70.589844 19.878906 C 69.753906 19.09375 69.214844 17.8125 69.15625 16.675781 C 69.140625 16.144531 69.136719 15.613281 69.253906 15.09375 C 69.265625 15.039062 69.277344 14.984375 69.289062 14.929688 C 69.503906 14 69.980469 13.230469 70.628906 12.546875 C 70.65625 12.515625 70.683594 12.484375 70.714844 12.453125 C 71.820312 11.257812 73.527344 10.765625 75.101562 10.988281 Z M 75.101562 10.988281 "/>
<path style=" stroke:none;fill-rule:nonzero;fill:rgb(11.764706%,32.549021%,52.941179%);fill-opacity:1;" d="M 30.984375 33.609375 C 31.402344 33.871094 31.675781 34.242188 31.808594 34.722656 C 31.828125 34.863281 31.832031 35 31.828125 35.140625 C 31.828125 35.179688 31.828125 35.21875 31.828125 35.257812 C 31.800781 36.277344 31.25 37.136719 30.707031 37.964844 C 30.6875 37.992188 30.667969 38.023438 30.648438 38.058594 C 30.148438 38.824219 29.625 39.574219 29.105469 40.324219 C 29.082031 40.359375 29.054688 40.394531 29.03125 40.429688 C 28.824219 40.726562 28.617188 41.023438 28.40625 41.320312 C 28.378906 41.355469 28.355469 41.390625 28.328125 41.425781 C 28.277344 41.496094 28.226562 41.566406 28.175781 41.632812 C 28.050781 41.804688 27.945312 41.964844 27.859375 42.160156 C 27.667969 42.566406 27.667969 42.566406 27.453125 42.683594 C 26.988281 42.777344 26.503906 42.730469 26.035156 42.683594 C 25.976562 42.574219 25.976562 42.488281 25.964844 42.359375 C 25.960938 42.3125 25.957031 42.265625 25.953125 42.214844 C 25.949219 42.164062 25.945312 42.109375 25.941406 42.058594 C 25.9375 42.003906 25.933594 41.949219 25.929688 41.894531 C 25.917969 41.726562 25.90625 41.554688 25.894531 41.382812 C 25.882812 41.265625 25.875 41.152344 25.867188 41.035156 C 25.847656 40.753906 25.824219 40.46875 25.804688 40.183594 C 25.785156 40.210938 25.769531 40.238281 25.75 40.265625 C 25.667969 40.382812 25.582031 40.503906 25.5 40.621094 C 25.472656 40.664062 25.445312 40.703125 25.414062 40.746094 C 25.28125 40.941406 25.144531 41.136719 25.007812 41.332031 C 24.988281 41.363281 24.96875 41.390625 24.945312 41.425781 C 24.878906 41.519531 24.8125 41.609375 24.742188 41.703125 C 24.648438 41.839844 24.574219 41.972656 24.507812 42.121094 C 24.390625 42.351562 24.289062 42.554688 24.0625 42.683594 C 23.597656 42.78125 23.113281 42.730469 22.640625 42.683594 C 22.566406 41.984375 22.511719 41.28125 22.460938 40.578125 C 22.445312 40.386719 22.429688 40.191406 22.417969 39.996094 C 22.375 39.445312 22.332031 38.894531 22.292969 38.339844 C 22.269531 38.035156 22.246094 37.730469 22.222656 37.421875 C 22.210938 37.261719 22.199219 37.101562 22.1875 36.941406 C 22.144531 36.339844 22.097656 35.742188 22.023438 35.148438 C 22.019531 35.105469 22.011719 35.0625 22.007812 35.019531 C 21.964844 34.699219 21.882812 34.40625 21.769531 34.105469 C 21.726562 33.980469 21.726562 33.980469 21.726562 33.890625 C 22.34375 33.890625 22.964844 33.890625 23.605469 33.890625 C 23.558594 34.214844 23.558594 34.214844 23.53125 34.328125 C 23.410156 35.023438 23.542969 35.804688 23.59375 36.503906 C 23.601562 36.625 23.609375 36.746094 23.617188 36.867188 C 23.636719 37.152344 23.65625 37.4375 23.675781 37.722656 C 23.699219 38.046875 23.71875 38.371094 23.742188 38.695312 C 23.789062 39.363281 23.832031 40.027344 23.878906 40.695312 C 23.894531 40.671875 23.910156 40.644531 23.925781 40.621094 C 24.09375 40.367188 24.257812 40.113281 24.425781 39.855469 C 24.484375 39.761719 24.546875 39.667969 24.609375 39.574219 C 24.667969 39.480469 24.730469 39.390625 24.789062 39.296875 C 24.847656 39.207031 24.90625 39.117188 24.964844 39.027344 C 25.085938 38.839844 25.210938 38.652344 25.34375 38.472656 C 25.601562 38.128906 25.601562 38.128906 25.644531 37.710938 C 25.636719 37.652344 25.636719 37.652344 25.628906 37.597656 C 25.625 37.554688 25.621094 37.515625 25.617188 37.472656 C 25.609375 37.386719 25.601562 37.300781 25.589844 37.214844 C 25.570312 37.042969 25.558594 36.871094 25.546875 36.699219 C 25.535156 36.527344 25.519531 36.355469 25.503906 36.183594 C 25.492188 36.050781 25.480469 35.921875 25.472656 35.792969 C 25.421875 35.234375 25.367188 34.65625 25.15625 34.128906 C 25.117188 34.027344 25.117188 34.027344 25.117188 33.890625 C 25.738281 33.890625 26.355469 33.890625 26.996094 33.890625 C 26.964844 34.042969 26.933594 34.195312 26.902344 34.351562 C 26.859375 34.691406 26.859375 35.007812 26.886719 35.347656 C 26.890625 35.425781 26.890625 35.425781 26.898438 35.503906 C 26.910156 35.671875 26.921875 35.839844 26.933594 36.007812 C 26.941406 36.125 26.949219 36.242188 26.957031 36.359375 C 26.972656 36.605469 26.992188 36.851562 27.007812 37.097656 C 27.035156 37.441406 27.058594 37.785156 27.082031 38.132812 C 27.117188 38.621094 27.152344 39.109375 27.183594 39.601562 C 27.1875 39.648438 27.191406 39.695312 27.195312 39.742188 C 27.21875 40.046875 27.242188 40.347656 27.269531 40.648438 C 27.316406 40.578125 27.359375 40.511719 27.40625 40.441406 C 27.445312 40.378906 27.484375 40.316406 27.527344 40.253906 C 27.644531 40.078125 27.757812 39.898438 27.875 39.71875 C 28.097656 39.378906 28.320312 39.035156 28.542969 38.695312 C 28.636719 38.550781 28.730469 38.410156 28.824219 38.265625 C 28.867188 38.199219 28.914062 38.128906 28.957031 38.0625 C 29.339844 37.484375 29.703125 36.890625 29.992188 36.253906 C 30.007812 36.222656 30.023438 36.191406 30.039062 36.15625 C 30.230469 35.730469 30.382812 35.339844 30.246094 34.875 C 30.121094 34.652344 29.980469 34.53125 29.746094 34.4375 C 29.476562 34.371094 29.195312 34.339844 28.921875 34.304688 C 29.105469 33.929688 29.371094 33.609375 29.765625 33.453125 C 30.1875 33.351562 30.601562 33.410156 30.984375 33.609375 Z M 30.984375 33.609375 "/>
<path style=" stroke:none;fill-rule:nonzero;fill:rgb(11.764706%,32.549021%,52.941179%);fill-opacity:1;" d="M 36.09375 37.023438 C 36.300781 37.203125 36.417969 37.382812 36.453125 37.660156 C 36.46875 38.195312 36.328125 38.695312 36.207031 39.210938 C 36.183594 39.308594 36.160156 39.410156 36.136719 39.507812 C 36.070312 39.796875 36 40.082031 35.933594 40.371094 C 35.882812 40.578125 35.835938 40.789062 35.785156 41 C 35.757812 41.113281 35.730469 41.226562 35.703125 41.335938 C 35.59375 41.8125 35.5625 42.191406 35.613281 42.683594 C 35.175781 42.683594 34.734375 42.683594 34.285156 42.683594 C 34.261719 42.480469 34.261719 42.480469 34.238281 42.269531 C 34.214844 42.289062 34.191406 42.3125 34.164062 42.332031 C 33.679688 42.742188 33.160156 42.855469 32.53125 42.8125 C 32.148438 42.761719 31.789062 42.640625 31.515625 42.355469 C 31.207031 41.941406 31.160156 41.476562 31.210938 40.972656 C 31.320312 40.402344 31.648438 39.957031 32.105469 39.617188 C 32.578125 39.292969 33.121094 39.152344 33.667969 39.003906 C 33.710938 38.992188 33.757812 38.980469 33.800781 38.96875 C 33.886719 38.945312 33.972656 38.921875 34.058594 38.898438 C 34.574219 38.773438 34.574219 38.773438 35 38.480469 C 35.074219 38.308594 35.089844 38.195312 35.0625 38.007812 C 34.921875 37.863281 34.804688 37.847656 34.605469 37.847656 C 34.003906 37.863281 33.488281 38.15625 33.070312 38.589844 C 32.984375 38.6875 32.898438 38.785156 32.816406 38.890625 C 32.679688 38.84375 32.679688 38.84375 32.617188 38.730469 C 32.378906 38.152344 32.378906 38.152344 32.480469 37.824219 C 32.671875 37.363281 33.109375 37.125 33.550781 36.945312 C 34.296875 36.671875 35.402344 36.558594 36.09375 37.023438 Z M 34.050781 39.996094 C 33.988281 40.019531 33.925781 40.039062 33.867188 40.058594 C 33.507812 40.175781 33.1875 40.292969 32.910156 40.554688 C 32.886719 40.578125 32.863281 40.597656 32.839844 40.621094 C 32.667969 40.800781 32.589844 41.003906 32.585938 41.25 C 32.640625 41.441406 32.738281 41.546875 32.890625 41.667969 C 33.167969 41.75 33.433594 41.710938 33.695312 41.589844 C 33.753906 41.554688 33.8125 41.519531 33.871094 41.480469 C 33.898438 41.464844 33.925781 41.449219 33.953125 41.429688 C 34.34375 41.140625 34.609375 40.566406 34.695312 40.09375 C 34.707031 39.933594 34.707031 39.933594 34.695312 39.816406 C 34.476562 39.816406 34.253906 39.925781 34.050781 39.996094 Z M 34.050781 39.996094 "/>
<path style=" stroke:none;fill-rule:nonzero;fill:rgb(11.764706%,32.549021%,52.941179%);fill-opacity:1;" d="M 56.714844 36.746094 C 56.78125 36.742188 56.78125 36.742188 56.847656 36.742188 C 57.269531 36.742188 57.695312 36.804688 58.023438 37.082031 C 58.277344 37.351562 58.355469 37.574219 58.355469 37.9375 C 58.339844 38.152344 58.289062 38.363281 58.238281 38.574219 C 58.226562 38.625 58.214844 38.671875 58.203125 38.722656 C 58.179688 38.828125 58.152344 38.933594 58.128906 39.035156 C 58.089844 39.199219 58.054688 39.363281 58.015625 39.527344 C 57.917969 39.953125 57.816406 40.382812 57.710938 40.808594 C 57.6875 40.90625 57.664062 41.003906 57.640625 41.097656 C 57.617188 41.207031 57.589844 41.316406 57.5625 41.425781 C 57.457031 41.851562 57.4375 42.253906 57.519531 42.683594 C 57.066406 42.683594 56.613281 42.683594 56.144531 42.683594 C 56.144531 42.546875 56.144531 42.410156 56.144531 42.269531 C 56.117188 42.289062 56.089844 42.3125 56.0625 42.332031 C 55.511719 42.746094 54.960938 42.878906 54.277344 42.796875 C 53.871094 42.71875 53.585938 42.554688 53.324219 42.226562 C 53.070312 41.851562 53.039062 41.382812 53.105469 40.941406 C 53.238281 40.332031 53.625 39.855469 54.140625 39.519531 C 54.640625 39.222656 55.207031 39.097656 55.765625 38.953125 C 56.421875 38.804688 56.421875 38.804688 56.929688 38.386719 C 56.980469 38.210938 56.964844 38.09375 56.925781 37.917969 C 56.441406 37.773438 56 37.890625 55.566406 38.121094 C 55.261719 38.296875 55 38.492188 54.78125 38.765625 C 54.746094 38.808594 54.714844 38.847656 54.679688 38.890625 C 54.648438 38.890625 54.617188 38.890625 54.585938 38.890625 C 54.394531 38.539062 54.285156 38.226562 54.359375 37.824219 C 54.519531 37.402344 54.894531 37.195312 55.285156 37.015625 C 55.761719 36.820312 56.203125 36.742188 56.714844 36.746094 Z M 55.929688 39.996094 C 55.84375 40.027344 55.757812 40.058594 55.667969 40.089844 C 55.25 40.238281 54.839844 40.398438 54.585938 40.785156 C 54.558594 40.828125 54.558594 40.828125 54.53125 40.871094 C 54.476562 41.03125 54.464844 41.179688 54.496094 41.34375 C 54.589844 41.519531 54.722656 41.640625 54.910156 41.714844 C 55.289062 41.738281 55.613281 41.589844 55.914062 41.371094 C 56.296875 41.03125 56.511719 40.449219 56.605469 39.953125 C 56.605469 39.90625 56.605469 39.863281 56.605469 39.816406 C 56.367188 39.816406 56.152344 39.917969 55.929688 39.996094 Z M 55.929688 39.996094 "/>
<path style=" stroke:none;fill-rule:nonzero;fill:rgb(11.764706%,32.549021%,52.941179%);fill-opacity:1;" d="M 62.148438 35.277344 C 62.03125 35.824219 61.90625 36.367188 61.777344 36.910156 C 61.761719 36.984375 61.742188 37.054688 61.726562 37.128906 C 61.683594 37.316406 61.636719 37.503906 61.59375 37.691406 C 61.546875 37.886719 61.5 38.078125 61.457031 38.269531 C 61.367188 38.644531 61.277344 39.023438 61.1875 39.398438 C 61.328125 39.289062 61.453125 39.183594 61.566406 39.046875 C 61.6875 38.902344 61.8125 38.757812 61.9375 38.621094 C 62.117188 38.417969 62.289062 38.210938 62.457031 38 C 62.507812 37.9375 62.507812 37.9375 62.5625 37.871094 C 62.578125 37.839844 62.597656 37.804688 62.613281 37.773438 C 62.695312 37.648438 62.757812 37.578125 62.882812 37.5 C 63.171875 37.4375 63.480469 37.464844 63.773438 37.476562 C 63.855469 37.480469 63.9375 37.480469 64.023438 37.480469 C 64.222656 37.484375 64.425781 37.492188 64.625 37.5 C 64.464844 37.664062 64.300781 37.816406 64.132812 37.96875 C 63.914062 38.167969 63.726562 38.378906 63.542969 38.613281 C 63.414062 38.777344 63.273438 38.929688 63.128906 39.082031 C 63.105469 39.109375 63.078125 39.136719 63.050781 39.167969 C 62.945312 39.285156 62.835938 39.398438 62.726562 39.511719 C 62.695312 39.542969 62.664062 39.574219 62.632812 39.605469 C 62.609375 39.632812 62.582031 39.65625 62.558594 39.683594 C 62.503906 39.769531 62.503906 39.769531 62.546875 39.882812 C 62.683594 40.242188 62.855469 40.585938 63.019531 40.929688 C 63.066406 41.023438 63.113281 41.121094 63.15625 41.214844 C 63.410156 41.757812 63.644531 42.222656 64.074219 42.640625 C 64.074219 42.652344 64.074219 42.667969 64.074219 42.683594 C 63.53125 42.683594 62.984375 42.683594 62.425781 42.683594 C 62.199219 42.226562 61.972656 41.769531 61.753906 41.308594 C 61.707031 41.21875 61.664062 41.125 61.621094 41.035156 C 61.441406 40.660156 61.265625 40.285156 61.097656 39.90625 C 60.957031 40.386719 60.832031 40.871094 60.714844 41.355469 C 60.691406 41.441406 60.671875 41.53125 60.648438 41.621094 C 60.636719 41.675781 60.621094 41.730469 60.609375 41.789062 C 60.589844 41.859375 60.589844 41.859375 60.570312 41.9375 C 60.523438 42.199219 60.546875 42.421875 60.589844 42.683594 C 60.03125 42.683594 59.472656 42.683594 58.894531 42.683594 C 58.988281 42.5 59.078125 42.320312 59.171875 42.128906 C 59.230469 41.925781 59.285156 41.726562 59.335938 41.519531 C 59.351562 41.460938 59.363281 41.402344 59.378906 41.34375 C 59.417969 41.1875 59.453125 41.03125 59.492188 40.871094 C 59.53125 40.707031 59.570312 40.542969 59.609375 40.378906 C 59.625 40.3125 59.644531 40.246094 59.660156 40.179688 C 59.667969 40.144531 59.675781 40.113281 59.683594 40.078125 C 59.707031 39.976562 59.734375 39.875 59.757812 39.769531 C 59.859375 39.351562 59.964844 38.933594 60.070312 38.515625 C 60.125 38.3125 60.175781 38.109375 60.226562 37.90625 C 60.257812 37.796875 60.285156 37.6875 60.3125 37.578125 C 60.484375 36.9375 60.589844 36.359375 60.546875 35.695312 C 60.746094 35.636719 60.945312 35.574219 61.144531 35.515625 C 61.210938 35.496094 61.277344 35.476562 61.347656 35.457031 C 61.441406 35.425781 61.539062 35.398438 61.636719 35.367188 C 61.683594 35.355469 61.683594 35.355469 61.730469 35.339844 C 61.878906 35.296875 61.992188 35.277344 62.148438 35.277344 Z M 62.148438 35.277344 "/>
<path style=" stroke:none;fill-rule:nonzero;fill:rgb(98.431373%,52.156866%,0%);fill-opacity:1;" d="M 14.179688 21.472656 C 14.230469 21.472656 14.28125 21.472656 14.332031 21.472656 C 14.4375 21.472656 14.542969 21.472656 14.648438 21.472656 C 14.808594 21.472656 14.972656 21.472656 15.132812 21.472656 C 15.234375 21.472656 15.335938 21.472656 15.441406 21.472656 C 15.488281 21.46875 15.535156 21.46875 15.585938 21.46875 C 15.632812 21.46875 15.675781 21.46875 15.722656 21.46875 C 15.761719 21.46875 15.800781 21.46875 15.84375 21.46875 C 15.960938 21.484375 16.035156 21.511719 16.132812 21.574219 C 16.328125 21.96875 16.046875 22.746094 15.964844 23.15625 C 15.933594 23.292969 15.910156 23.429688 15.882812 23.570312 C 15.863281 23.65625 15.84375 23.742188 15.828125 23.832031 C 15.820312 23.871094 15.8125 23.914062 15.804688 23.957031 C 15.746094 24.230469 15.746094 24.230469 15.640625 24.355469 C 15.507812 24.410156 15.40625 24.417969 15.265625 24.417969 C 15.214844 24.417969 15.164062 24.417969 15.109375 24.417969 C 15.054688 24.417969 15 24.417969 14.945312 24.414062 C 14.890625 24.417969 14.835938 24.417969 14.78125 24.417969 C 14.726562 24.417969 14.675781 24.417969 14.621094 24.417969 C 14.574219 24.417969 14.527344 24.417969 14.476562 24.417969 C 14.328125 24.394531 14.238281 24.347656 14.117188 24.257812 C 14.136719 23.800781 14.242188 23.363281 14.347656 22.917969 C 14.179688 22.933594 14.011719 22.945312 13.839844 22.964844 C 13.828125 23.015625 13.816406 23.070312 13.804688 23.128906 C 13.757812 23.328125 13.714844 23.527344 13.667969 23.730469 C 13.648438 23.816406 13.628906 23.902344 13.609375 23.988281 C 13.582031 24.113281 13.550781 24.238281 13.523438 24.363281 C 13.515625 24.402344 13.507812 24.441406 13.496094 24.484375 C 13.433594 24.757812 13.433594 24.757812 13.382812 24.859375 C 13.433594 24.859375 13.433594 24.859375 13.480469 24.859375 C 13.785156 24.855469 14.089844 24.851562 14.394531 24.851562 C 14.550781 24.851562 14.710938 24.847656 14.867188 24.847656 C 15.046875 24.84375 15.226562 24.84375 15.40625 24.84375 C 15.460938 24.84375 15.519531 24.839844 15.578125 24.839844 C 15.628906 24.839844 15.679688 24.839844 15.734375 24.839844 C 15.804688 24.839844 15.804688 24.839844 15.875 24.839844 C 16.027344 24.867188 16.082031 24.921875 16.179688 25.046875 C 16.199219 25.203125 16.160156 25.355469 16.132812 25.507812 C 16.125 25.566406 16.113281 25.621094 16.105469 25.679688 C 16.023438 26.132812 16.023438 26.132812 15.910156 26.242188 C 15.691406 26.359375 15.472656 26.347656 15.230469 26.347656 C 15.1875 26.347656 15.148438 26.347656 15.109375 26.347656 C 14.976562 26.347656 14.84375 26.347656 14.707031 26.347656 C 14.617188 26.347656 14.523438 26.347656 14.433594 26.347656 C 14.191406 26.347656 13.945312 26.347656 13.703125 26.347656 C 13.457031 26.34375 13.210938 26.34375 12.960938 26.34375 C 12.476562 26.34375 11.988281 26.34375 11.503906 26.34375 C 11.527344 26.070312 11.558594 25.804688 11.613281 25.535156 C 11.617188 25.507812 11.625 25.476562 11.628906 25.441406 C 11.648438 25.34375 11.671875 25.242188 11.691406 25.140625 C 11.699219 25.105469 11.703125 25.074219 11.710938 25.035156 C 11.816406 24.515625 11.921875 24 12.035156 23.480469 C 12.050781 23.414062 12.066406 23.34375 12.082031 23.273438 C 12.210938 22.660156 12.375 22.15625 12.878906 21.757812 C 13.308594 21.507812 13.695312 21.472656 14.179688 21.472656 Z M 14.179688 21.472656 "/>
<path style=" stroke:none;fill-rule:nonzero;fill:rgb(11.764706%,32.549021%,52.941179%);fill-opacity:1;" d="M 40.003906 36.746094 C 40.0625 36.746094 40.0625 36.746094 40.125 36.746094 C 40.746094 36.757812 41.253906 36.933594 41.714844 37.359375 C 41.976562 37.648438 42.105469 37.953125 42.167969 38.332031 C 41.984375 38.410156 41.800781 38.488281 41.617188 38.566406 C 41.574219 38.582031 41.527344 38.601562 41.484375 38.621094 C 41.421875 38.644531 41.421875 38.644531 41.363281 38.671875 C 41.324219 38.6875 41.289062 38.703125 41.253906 38.71875 C 41.160156 38.75 41.160156 38.75 41.019531 38.75 C 41.019531 38.71875 41.019531 38.691406 41.015625 38.660156 C 41 38.394531 40.972656 38.214844 40.792969 38.007812 C 40.488281 37.816406 40.128906 37.777344 39.777344 37.839844 C 39.6875 37.863281 39.597656 37.890625 39.507812 37.917969 C 39.472656 37.925781 39.4375 37.9375 39.402344 37.949219 C 39.269531 38.050781 39.238281 38.175781 39.1875 38.332031 C 39.191406 38.484375 39.214844 38.542969 39.308594 38.65625 C 39.433594 38.765625 39.554688 38.832031 39.703125 38.902344 C 39.730469 38.917969 39.757812 38.929688 39.789062 38.945312 C 39.96875 39.035156 40.15625 39.117188 40.34375 39.195312 C 40.851562 39.414062 41.386719 39.679688 41.609375 40.226562 C 41.734375 40.660156 41.734375 41.207031 41.535156 41.613281 C 41.21875 42.160156 40.777344 42.539062 40.179688 42.734375 C 39.410156 42.929688 38.574219 42.804688 37.875 42.4375 C 37.582031 42.253906 37.300781 41.996094 37.171875 41.667969 C 37.089844 41.148438 37.324219 40.707031 37.582031 40.277344 C 37.628906 40.371094 37.675781 40.460938 37.710938 40.558594 C 37.886719 41.003906 38.210938 41.367188 38.640625 41.574219 C 39.101562 41.757812 39.554688 41.765625 40.011719 41.574219 C 40.238281 41.441406 40.351562 41.269531 40.425781 41.019531 C 40.425781 40.839844 40.402344 40.765625 40.285156 40.628906 C 40.125 40.488281 39.96875 40.410156 39.777344 40.324219 C 39.703125 40.292969 39.632812 40.257812 39.558594 40.226562 C 39.445312 40.171875 39.332031 40.121094 39.214844 40.070312 C 39.105469 40.019531 38.996094 39.96875 38.882812 39.917969 C 38.851562 39.902344 38.816406 39.886719 38.78125 39.871094 C 38.472656 39.730469 38.199219 39.511719 38.070312 39.183594 C 38.058594 39.152344 38.042969 39.117188 38.027344 39.082031 C 37.898438 38.6875 37.898438 38.214844 38.042969 37.824219 C 38.253906 37.402344 38.59375 37.074219 39.027344 36.886719 C 39.351562 36.785156 39.660156 36.742188 40.003906 36.746094 Z M 40.003906 36.746094 "/>
<path style=" stroke:none;fill-rule:nonzero;fill:rgb(99.607843%,99.215686%,98.823529%);fill-opacity:1;" d="M 76.414062 11.753906 C 76.488281 11.753906 76.488281 11.753906 76.5625 11.753906 C 76.625 11.753906 76.625 11.753906 76.691406 11.75 C 77.25 11.785156 77.726562 12.183594 78.097656 12.578125 C 78.769531 13.351562 79.285156 14.261719 79.476562 15.277344 C 79.484375 15.316406 79.492188 15.351562 79.5 15.390625 C 79.5625 15.707031 79.578125 16.011719 79.574219 16.332031 C 79.574219 16.402344 79.574219 16.402344 79.574219 16.472656 C 79.574219 16.699219 79.566406 16.910156 79.519531 17.128906 C 79.398438 17.007812 79.292969 16.890625 79.195312 16.746094 C 79.171875 16.707031 79.144531 16.671875 79.117188 16.632812 C 79.089844 16.589844 79.066406 16.550781 79.035156 16.511719 C 78.277344 15.402344 77.300781 14.011719 75.929688 13.675781 C 75.351562 13.582031 74.921875 13.710938 74.449219 14.042969 C 74.371094 14.097656 74.292969 14.15625 74.214844 14.214844 C 73.734375 14.574219 73.351562 14.78125 72.738281 14.722656 C 72.574219 14.667969 72.449219 14.597656 72.363281 14.4375 C 72.351562 14.410156 72.335938 14.382812 72.324219 14.351562 C 72.355469 14.332031 72.386719 14.3125 72.414062 14.289062 C 73.023438 13.863281 73.449219 13.355469 73.871094 12.75 C 74.070312 12.476562 74.253906 12.226562 74.542969 12.046875 C 74.582031 12.019531 74.621094 11.992188 74.664062 11.964844 C 75 11.796875 75.335938 11.789062 75.707031 11.777344 C 75.75 11.773438 75.796875 11.773438 75.84375 11.769531 C 76.035156 11.765625 76.226562 11.761719 76.414062 11.753906 Z M 76.414062 11.753906 "/>
<path style=" stroke:none;fill-rule:nonzero;fill:rgb(11.764706%,32.549021%,52.941179%);fill-opacity:1;" d="M 52.066406 35.785156 C 51.945312 36.363281 51.804688 36.933594 51.652344 37.5 C 51.777344 37.488281 51.902344 37.476562 52.023438 37.460938 C 52.058594 37.460938 52.09375 37.457031 52.128906 37.453125 C 52.304688 37.433594 52.449219 37.40625 52.609375 37.332031 C 52.753906 37.269531 52.753906 37.269531 52.890625 37.316406 C 52.609375 38.171875 52.609375 38.171875 52.296875 38.425781 C 52.125 38.484375 51.960938 38.488281 51.78125 38.5 C 51.75 38.5 51.714844 38.503906 51.679688 38.503906 C 51.59375 38.507812 51.507812 38.515625 51.425781 38.519531 C 51.417969 38.546875 51.410156 38.574219 51.40625 38.601562 C 51.335938 38.882812 51.265625 39.167969 51.195312 39.449219 C 51.167969 39.554688 51.144531 39.660156 51.117188 39.765625 C 51.078125 39.917969 51.042969 40.070312 51.003906 40.222656 C 50.992188 40.269531 50.980469 40.316406 50.96875 40.363281 C 50.921875 40.554688 50.875 40.742188 50.820312 40.925781 C 50.761719 41.144531 50.75 41.351562 50.785156 41.574219 C 50.898438 41.734375 51.015625 41.769531 51.203125 41.796875 C 51.445312 41.816406 51.6875 41.789062 51.929688 41.757812 C 51.839844 42.089844 51.6875 42.429688 51.4375 42.664062 C 51.003906 42.859375 50.535156 42.871094 50.085938 42.726562 C 49.816406 42.609375 49.605469 42.417969 49.457031 42.164062 C 49.339844 41.742188 49.363281 41.382812 49.46875 40.960938 C 49.480469 40.910156 49.492188 40.863281 49.503906 40.808594 C 49.539062 40.667969 49.574219 40.523438 49.613281 40.378906 C 49.640625 40.269531 49.667969 40.15625 49.695312 40.046875 C 49.828125 39.519531 49.960938 38.996094 50.097656 38.472656 C 49.914062 38.472656 49.734375 38.472656 49.546875 38.472656 C 49.574219 38.34375 49.601562 38.21875 49.632812 38.089844 C 49.640625 38.054688 49.648438 38.019531 49.65625 37.980469 C 49.667969 37.929688 49.667969 37.929688 49.679688 37.875 C 49.691406 37.828125 49.691406 37.828125 49.703125 37.777344 C 49.757812 37.589844 49.757812 37.589844 49.820312 37.5 C 49.941406 37.472656 49.941406 37.472656 50.078125 37.464844 C 50.125 37.460938 50.171875 37.460938 50.21875 37.457031 C 50.269531 37.457031 50.269531 37.457031 50.324219 37.453125 C 50.332031 37.417969 50.339844 37.382812 50.347656 37.34375 C 50.378906 37.183594 50.414062 37.023438 50.449219 36.859375 C 50.460938 36.804688 50.46875 36.746094 50.480469 36.691406 C 50.5 36.609375 50.5 36.609375 50.515625 36.527344 C 50.527344 36.476562 50.539062 36.425781 50.546875 36.375 C 50.613281 36.214844 50.671875 36.183594 50.828125 36.109375 C 50.917969 36.078125 51.007812 36.050781 51.097656 36.027344 C 51.148438 36.011719 51.199219 36 51.253906 35.984375 C 51.304688 35.96875 51.355469 35.957031 51.410156 35.941406 C 51.464844 35.925781 51.515625 35.910156 51.570312 35.894531 C 51.960938 35.785156 51.960938 35.785156 52.066406 35.785156 Z M 52.066406 35.785156 "/>
<path style=" stroke:none;fill-rule:nonzero;fill:rgb(11.764706%,32.549021%,52.941179%);fill-opacity:1;" d="M 45.375 36.804688 C 45.261719 37.394531 45.136719 37.980469 45.003906 38.566406 C 44.972656 38.699219 44.945312 38.828125 44.914062 38.960938 C 44.828125 39.332031 44.746094 39.703125 44.660156 40.074219 C 44.609375 40.304688 44.554688 40.53125 44.503906 40.761719 C 44.484375 40.847656 44.464844 40.933594 44.445312 41.019531 C 44.253906 41.84375 44.253906 41.84375 44.273438 42.683594 C 43.714844 42.683594 43.15625 42.683594 42.578125 42.683594 C 42.636719 42.570312 42.695312 42.457031 42.757812 42.34375 C 42.894531 42.070312 42.949219 41.773438 43.015625 41.476562 C 43.03125 41.414062 43.046875 41.347656 43.058594 41.285156 C 43.097656 41.117188 43.136719 40.949219 43.175781 40.78125 C 43.210938 40.613281 43.25 40.445312 43.289062 40.277344 C 43.363281 39.964844 43.433594 39.648438 43.503906 39.332031 C 43.527344 39.230469 43.550781 39.125 43.574219 39.023438 C 43.671875 38.597656 43.753906 38.1875 43.738281 37.746094 C 43.734375 37.683594 43.734375 37.683594 43.734375 37.617188 C 43.730469 37.515625 43.730469 37.414062 43.726562 37.316406 C 43.945312 37.242188 44.164062 37.167969 44.386719 37.097656 C 44.460938 37.074219 44.535156 37.046875 44.609375 37.023438 C 44.71875 36.988281 44.824219 36.953125 44.933594 36.917969 C 44.96875 36.90625 45 36.894531 45.035156 36.882812 C 45.273438 36.804688 45.273438 36.804688 45.375 36.804688 Z M 45.375 36.804688 "/>
<path style=" stroke:none;fill-rule:nonzero;fill:rgb(11.764706%,32.549021%,52.941179%);fill-opacity:1;" d="M 48.445312 36.804688 C 48.421875 37.128906 48.371094 37.433594 48.296875 37.746094 C 48.289062 37.792969 48.277344 37.839844 48.265625 37.886719 C 48.246094 37.984375 48.222656 38.082031 48.199219 38.179688 C 48.164062 38.335938 48.128906 38.488281 48.09375 38.644531 C 47.996094 39.085938 47.894531 39.527344 47.792969 39.96875 C 47.730469 40.238281 47.671875 40.507812 47.609375 40.777344 C 47.585938 40.882812 47.5625 40.984375 47.539062 41.085938 C 47.507812 41.230469 47.472656 41.375 47.441406 41.515625 C 47.433594 41.558594 47.421875 41.601562 47.414062 41.644531 C 47.332031 42.011719 47.332031 42.316406 47.390625 42.683594 C 46.816406 42.683594 46.242188 42.683594 45.648438 42.683594 C 45.785156 42.480469 45.785156 42.480469 45.925781 42.269531 C 45.984375 42.128906 45.984375 42.128906 46.011719 41.992188 C 46.023438 41.941406 46.035156 41.890625 46.046875 41.839844 C 46.058594 41.785156 46.070312 41.730469 46.082031 41.675781 C 46.097656 41.617188 46.109375 41.5625 46.121094 41.503906 C 46.15625 41.351562 46.191406 41.199219 46.226562 41.050781 C 46.257812 40.898438 46.292969 40.75 46.328125 40.601562 C 46.394531 40.304688 46.460938 40.011719 46.527344 39.714844 C 46.554688 39.59375 46.582031 39.476562 46.605469 39.355469 C 46.644531 39.183594 46.683594 39.007812 46.722656 38.835938 C 46.734375 38.78125 46.746094 38.730469 46.757812 38.675781 C 46.859375 38.21875 46.871094 37.78125 46.839844 37.316406 C 47.054688 37.242188 47.269531 37.167969 47.484375 37.097656 C 47.554688 37.074219 47.628906 37.046875 47.699219 37.023438 C 47.804688 36.988281 47.910156 36.953125 48.015625 36.917969 C 48.046875 36.90625 48.078125 36.894531 48.113281 36.882812 C 48.34375 36.804688 48.34375 36.804688 48.445312 36.804688 Z M 48.445312 36.804688 "/>
<path style=" stroke:none;fill-rule:nonzero;fill:rgb(98.431373%,52.156866%,0%);fill-opacity:1;" d="M 44.347656 33.929688 C 44.421875 33.929688 44.496094 33.929688 44.570312 33.929688 C 44.605469 33.929688 44.644531 33.929688 44.6875 33.929688 C 44.808594 33.929688 44.933594 33.933594 45.058594 33.933594 C 45.140625 33.933594 45.222656 33.933594 45.308594 33.933594 C 45.515625 33.933594 45.71875 33.933594 45.925781 33.933594 C 45.902344 34.257812 45.863281 34.570312 45.789062 34.886719 C 45.777344 34.941406 45.777344 34.941406 45.765625 35 C 45.707031 35.265625 45.707031 35.265625 45.605469 35.371094 C 45.488281 35.378906 45.375 35.382812 45.257812 35.382812 C 45.207031 35.382812 45.207031 35.382812 45.152344 35.382812 C 45.082031 35.382812 45.007812 35.382812 44.9375 35.382812 C 44.824219 35.382812 44.714844 35.382812 44.601562 35.382812 C 44.53125 35.382812 44.460938 35.382812 44.390625 35.382812 C 44.359375 35.382812 44.324219 35.382812 44.292969 35.382812 C 44.054688 35.382812 44.054688 35.382812 43.953125 35.277344 C 43.933594 34.984375 43.984375 34.710938 44.042969 34.425781 C 44.054688 34.359375 44.054688 34.359375 44.066406 34.296875 C 44.140625 33.9375 44.140625 33.9375 44.347656 33.929688 Z M 44.347656 33.929688 "/>
<path style=" stroke:none;fill-rule:nonzero;fill:rgb(98.431373%,52.156866%,0%);fill-opacity:1;" d="M 47.070312 33.933594 C 47.644531 33.933594 48.21875 33.933594 48.8125 33.933594 C 48.757812 34.539062 48.757812 34.539062 48.703125 34.835938 C 48.699219 34.867188 48.691406 34.898438 48.6875 34.929688 C 48.65625 35.113281 48.625 35.242188 48.492188 35.371094 C 48.367188 35.386719 48.265625 35.394531 48.140625 35.390625 C 48.105469 35.390625 48.070312 35.390625 48.035156 35.390625 C 47.964844 35.390625 47.894531 35.390625 47.820312 35.390625 C 47.710938 35.386719 47.597656 35.386719 47.488281 35.386719 C 47.417969 35.386719 47.347656 35.386719 47.277344 35.386719 C 47.246094 35.386719 47.210938 35.386719 47.179688 35.386719 C 46.945312 35.382812 46.945312 35.382812 46.839844 35.277344 C 46.820312 35.003906 46.875 34.746094 46.929688 34.476562 C 46.9375 34.433594 46.945312 34.390625 46.957031 34.347656 C 47.019531 34.042969 47.019531 34.042969 47.070312 33.933594 Z M 47.070312 33.933594 "/>
</g>
</svg>
